<?xml version="1.0" encoding="iso-8859-1"?>
<!-- Generator: Adobe Illustrator 19.0.0, SVG Export Plug-In . SVG Version: 6.00 Build 0)  -->
<svg version="1.1" id="Capa_1" xmlns="http://www.w3.org/2000/svg" xmlns:xlink="http://www.w3.org/1999/xlink" x="0px" y="0px"
	 viewBox="0 0 512.001 512.001" style="enable-background:new 0 0 512.001 512.001;" xml:space="preserve">
<g>
	<g>
		<path d="M132.036,402.456c-10.246-4.518-16.316-15.031-15.105-26.163c0.428-3.939-1.51-7.76-4.941-9.741
			c-3.431-1.981-7.709-1.749-10.907,0.591c-9.034,6.616-21.176,6.615-30.21,0c-3.197-2.339-7.475-2.572-10.907-0.591
			c-3.432,1.981-5.37,5.802-4.941,9.741c1.21,11.132-4.86,21.646-15.106,26.163c-3.625,1.6-5.965,5.188-5.965,9.15
			c0,3.962,2.34,7.551,5.965,9.15c10.246,4.518,16.316,15.031,15.106,26.163c-0.428,3.939,1.51,7.76,4.941,9.741
			c3.432,1.981,7.709,1.749,10.907-0.591c9.034-6.615,21.176-6.615,30.21,0c1.751,1.281,3.826,1.931,5.908,1.931
			c1.72,0,3.446-0.443,4.999-1.34c3.432-1.981,5.37-5.802,4.941-9.741c-1.21-11.132,4.86-21.646,15.105-26.163
			c3.625-1.6,5.965-5.188,5.965-9.15C138.001,407.644,135.661,404.056,132.036,402.456z M98.196,432.771
			c-7.994-2.238-16.445-2.238-24.438,0c-2.059-8.042-6.284-15.36-12.219-21.164c5.936-5.804,10.161-13.122,12.219-21.164
			c7.994,2.239,16.445,2.239,24.438,0c2.059,8.042,6.284,15.36,12.219,21.164C104.479,417.411,100.254,424.729,98.196,432.771z"/>
	</g>
</g>
<g>
	<g>
		<path d="M388.023,361.546c-11.943-5.266-19.019-17.522-17.608-30.498c0.428-3.939-1.51-7.76-4.941-9.741
			c-3.432-1.981-7.709-1.75-10.907,0.592c-10.531,7.709-24.684,7.71-35.216-0.001c-3.196-2.339-7.475-2.573-10.907-0.591
			c-3.432,1.981-5.37,5.802-4.941,9.741c1.411,12.976-5.665,25.232-17.608,30.498c-3.625,1.599-5.965,5.188-5.965,9.15
			c0,3.962,2.34,7.552,5.965,9.15c11.943,5.266,19.02,17.522,17.608,30.498c-0.428,3.939,1.51,7.76,4.941,9.741
			c3.432,1.981,7.709,1.749,10.907-0.591c10.533-7.713,24.685-7.711,35.216-0.001c1.751,1.282,3.826,1.932,5.908,1.932
			c1.72,0,3.446-0.443,4.999-1.34c3.432-1.981,5.37-5.802,4.941-9.741c-1.411-12.975,5.665-25.232,17.608-30.498
			c3.625-1.6,5.965-5.188,5.965-9.15C393.988,366.734,391.648,363.145,388.023,361.546z M351.496,395.875
			c-9.475-2.908-19.601-2.909-29.076,0.001c-2.218-9.661-7.281-18.429-14.538-25.181c7.257-6.752,12.319-15.52,14.538-25.18
			c9.476,2.908,19.601,2.908,29.076,0c2.218,9.66,7.281,18.428,14.538,25.18C358.777,377.448,353.714,386.214,351.496,395.875z"/>
	</g>
</g>
<g>
	<g>
		<path d="M171.465,181.092c-9.898-3.826-15.803-12.403-14.694-21.343c0.478-3.849-1.314-7.627-4.596-9.694
			c-3.281-2.065-7.463-2.048-10.729,0.047c-9.191,5.898-22.031,5.899-31.224,0c-3.264-2.096-7.446-2.113-10.728-0.047
			c-3.282,2.066-5.074,5.845-4.596,9.694c1.109,8.941-4.796,17.518-14.693,21.343c-3.854,1.49-6.395,5.196-6.395,9.328
			s2.541,7.838,6.395,9.328c9.897,3.825,15.802,12.402,14.693,21.343c-0.478,3.85,1.314,7.627,4.596,9.694
			c3.282,2.067,7.463,2.049,10.728-0.046c9.192-5.898,22.031-5.899,31.224,0c1.645,1.055,3.522,1.583,5.4,1.583
			c1.849,0,3.699-0.512,5.328-1.538c3.283-2.066,5.074-5.844,4.596-9.694c-1.109-8.94,4.796-17.517,14.694-21.343
			c3.854-1.49,6.395-5.196,6.395-9.328C177.859,186.287,175.319,182.581,171.465,181.092z M138.269,207.857
			c-4.061-1.037-8.248-1.555-12.435-1.555c-4.187,0-8.373,0.519-12.434,1.555c-2.002-6.56-5.777-12.547-10.989-17.438
			c5.211-4.891,8.987-10.879,10.989-17.438c8.123,2.073,16.748,2.073,24.87,0c2.002,6.56,5.777,12.547,10.989,17.438
			C144.046,195.31,140.271,201.298,138.269,207.857z"/>
	</g>
</g>
<g>
	<g>
		<path d="M93.051,404.532c-1.86-1.861-4.44-2.931-7.08-2.931c-2.63,0-5.21,1.07-7.07,2.931c-1.86,1.869-2.92,4.439-2.92,7.079
			c0,2.631,1.06,5.21,2.92,7.07c1.87,1.86,4.44,2.93,7.07,2.93c2.64,0,5.21-1.069,7.08-2.93c1.86-1.87,2.92-4.439,2.92-7.07
			C95.971,408.971,94.911,406.401,93.051,404.532z"/>
	</g>
</g>
<g>
	<g>
		<path d="M344.031,367.882c-1.86-1.86-4.44-2.93-7.07-2.93c-2.64,0-5.21,1.06-7.08,2.93c-1.86,1.86-2.92,4.43-2.92,7.07
			c0,2.63,1.06,5.21,2.92,7.069c1.87,1.86,4.45,2.931,7.08,2.931s5.21-1.07,7.07-2.931c1.86-1.859,2.93-4.439,2.93-7.069
			C346.961,372.311,345.891,369.742,344.031,367.882z"/>
	</g>
</g>
<g>
	<g>
		<path d="M132.901,183.351c-1.86-1.87-4.43-2.93-7.07-2.93c-2.63,0-5.21,1.06-7.07,2.93c-1.86,1.86-2.93,4.43-2.93,7.07
			c0,2.63,1.07,5.21,2.93,7.07s4.44,2.93,7.07,2.93c2.64,0,5.21-1.07,7.07-2.93c1.87-1.86,2.93-4.44,2.93-7.07
			S134.771,185.211,132.901,183.351z"/>
	</g>
</g>
<g>
	<g>
		<path d="M430.665,394.265c-3.857-3.018-10.197-3.155-14.133,1.833c-0.034,0.044-0.068,0.087-0.102,0.132
			c-3.853,5.053-2.14,11.16,1.741,14.145c1.711,1.315,3.9,2.067,6.146,2.067c2.85,0,5.793-1.211,7.971-4.018
			C436.182,403.403,434.521,397.282,430.665,394.265z"/>
	</g>
</g>
<g>
	<g>
		<path d="M296.986,79.948c-3.912-3.898-10.244-3.887-14.142,0.026l-0.418,0.419c-3.891,3.919-3.868,10.251,0.051,14.142
			c1.951,1.937,4.498,2.903,7.045,2.903c2.571,0,5.142-0.986,7.097-2.955l0.393-0.394C300.909,90.178,300.898,83.847,296.986,79.948
			z"/>
	</g>
</g>
<g>
	<g>
		<path d="M512.001,162.099c0-3.708-2.024-7.131-5.304-8.862c-3.279-1.732-7.22-1.524-10.282,0.568
			c-0.242,0.161-24.796,16.062-76.133,16.062c-45.403,0-72.178,26.289-80.993,36.688c-2.358-0.132-4.731-0.206-7.121-0.206
			c-0.445,0-0.887,0.014-1.33,0.019c13.426-20.877,21.639-49.665,23.201-82.764c2.382-50.463-11.154-96.713-35.327-120.702
			c-3.739-3.711-9.716-3.885-13.665-0.396c-4.005,3.538-13.774,8.679-25.085,14.632c-16.347,8.604-38.735,20.386-62.659,36.979
			c-30.811,21.368-39.199,54.441-41.355,74.305c-15.365-6.697-32.311-10.421-50.113-10.421
			c-69.385,0-125.834,56.449-125.834,125.834c0,25.761,7.631,50.212,22.096,71.196c-13.929,20.25-22.096,44.756-22.096,71.137
			c0,69.385,56.449,125.833,125.834,125.833c56.276,0,104.038-37.134,120.078-88.185c23.185,21.924,53.699,34.201,86.255,34.201
			c19.444,0,38.094-4.319,55.43-12.837c4.957-2.436,7.001-8.429,4.565-13.386c-2.436-4.956-8.429-6.998-13.385-4.565
			c-14.569,7.158-30.251,10.788-46.611,10.788c-31.678,0-61.064-13.82-81.26-38.048c0.497-4.534,0.76-9.137,0.76-13.801
			c0-26.381-8.167-50.888-22.096-71.137c10.284-14.918,17.108-31.587,20.19-49.239c15.064-18.697,35.493-31.427,58.288-36.703
			c0.402-0.062,0.801-0.149,1.196-0.26c7.432-1.629,15.105-2.479,22.922-2.479C390.524,226.35,438,273.827,438,332.183
			c0,8.884-1.101,17.707-3.272,26.227c-1.364,5.352,1.869,10.796,7.221,12.16c0.829,0.211,1.659,0.312,2.477,0.312
			c4.462,0,8.53-3.009,9.683-7.532c2.582-10.133,3.892-20.618,3.892-31.166c0-4.359-0.224-8.666-0.658-12.912
			C511.355,272.862,512.001,166.717,512.001,162.099z M231.667,386.168c0.001,58.357-47.476,105.833-105.832,105.833
			c-58.357,0-105.834-47.476-105.834-105.833s47.477-105.834,105.833-105.834S231.667,327.811,231.667,386.168z M230.471,259.756
			c-0.06,0.311-0.105,0.622-0.135,0.935c-2.145,13.521-6.884,26.382-14.044,38.098c-22.896-23.694-54.983-38.455-90.457-38.455
			s-67.561,14.76-90.457,38.456c-10.085-16.501-15.377-35.273-15.377-54.955c0-58.357,47.477-105.834,105.834-105.834
			c58.356,0,105.833,47.477,105.833,105.833C231.668,249.22,231.252,254.534,230.471,259.756z M301.924,209.99
			c-18.409,4.511-35.475,13.121-50.07,25.279c-6.178-36.526,0.27-73.84,18.563-106.234c2.716-4.809,1.019-10.909-3.791-13.625
			s-10.909-1.019-13.624,3.791c-10.23,18.116-17.154,37.6-20.686,57.659c-9.531-15.1-22.181-28.039-37.041-37.91
			c0.322-12.773,3.992-47.985,33.426-68.399c22.921-15.897,43.8-26.885,60.576-35.714c8.425-4.434,15.387-8.098,20.842-11.476
			c16.564,21.51,25.834,59.233,23.943,99.3C332.242,161.206,320.278,193.595,301.924,209.99z M452.641,295.832
			c-6.69-22.129-19.317-41.705-36.028-56.859c11.451-6.412,24.29-9.763,37.735-9.763c5.523,0,10-4.477,10-10s-4.477-10-10-10
			c-19.813,0-38.584,5.792-54.73,16.789c-10.93-6.967-23-12.296-35.865-15.634c10.894-9.204,29.721-20.498,56.53-20.498
			c33.336,0,56.782-6.153,70.938-11.553C489.114,206.126,481.329,263.052,452.641,295.832z"/>
	</g>
</g>
<g>
</g>
<g>
</g>
<g>
</g>
<g>
</g>
<g>
</g>
<g>
</g>
<g>
</g>
<g>
</g>
<g>
</g>
<g>
</g>
<g>
</g>
<g>
</g>
<g>
</g>
<g>
</g>
<g>
</g>
</svg>
